<?xml version="1.0" encoding="UTF-8"?>
<svg version="1.1" xmlns="http://www.w3.org/2000/svg" width="512" height="512">
<path d="M0 0 C7.96332212 7.20502298 15.08747552 14.98870492 21.64599609 23.48925781 C22.28770752 24.31635254 22.28770752 24.31635254 22.94238281 25.16015625 C58.10600085 70.77029387 73.03967998 127.64761574 66.12451172 184.69775391 C58.74233639 239.17788266 30.39818417 290.73267406 -13.35400391 324.48925781 C-13.90540039 324.91706543 -14.45679688 325.34487305 -15.02490234 325.78564453 C-60.63503996 360.94926257 -117.51236183 375.8829417 -174.5625 368.96777344 C-229.04262876 361.5855981 -280.59742015 333.24144589 -314.35400391 289.48925781 C-314.78181152 288.93786133 -315.20961914 288.38646484 -315.65039062 287.81835938 C-350.81400866 242.20822175 -365.74768779 185.33089989 -358.83251953 128.28076172 C-352.33389625 80.32120822 -330.36235048 37.65905144 -296.35400391 3.48925781 C-295.79632324 2.92754883 -295.23864258 2.36583984 -294.6640625 1.78710938 C-226.04775305 -66.48882154 -114.24510809 -75.76512424 0 0 Z M-270.72509766 39.67285156 C-303.93391656 76.70426833 -318.20898215 121.16744753 -316.35400391 170.48925781 C-313.54137657 212.35935994 -292.57048601 254.49512225 -261.35400391 282.48925781 C-224.37019777 314.67775683 -180.0786245 328.78829903 -131.35400391 326.48925781 C-88.1997502 323.41139128 -46.53673534 300.99956046 -18.01806641 268.85644531 C12.99204929 230.9551928 27.79782566 185.78823333 23.18505859 136.72753906 C18.05063103 92.92242291 -4.97546939 51.40280933 -39.35009766 23.80957031 C-64.22846645 4.59272888 -92.22927958 -7.78766721 -123.35400391 -12.51074219 C-125.11744141 -12.78724609 -125.11744141 -12.78724609 -126.91650391 -13.06933594 C-180.08331852 -19.44294805 -233.83582112 1.30430579 -270.72509766 39.67285156 Z " fill="#0C99D3" transform="translate(402.35400390625,99.5107421875)"/>
<path d="M0 0 C5.76983161 5.29972695 9.19365962 12.32318406 12.875 19.125 C17.2955238 27.17479135 21.7732953 35.11623098 26.7421875 42.83984375 C28 45 28 45 28 47 C28.66 47 29.32 47 30 47 C30.25885986 46.30342285 30.51771973 45.6068457 30.78442383 44.88916016 C32.12797698 41.69582656 33.73038671 38.7816749 35.44921875 35.7734375 C35.78492386 35.18511139 36.12062897 34.59678528 36.46650696 33.9906311 C37.17686678 32.7475759 37.88882802 31.50543463 38.60229492 30.26416016 C39.67092404 28.40385597 40.73330594 26.54009445 41.79492188 24.67578125 C45.02363461 19.02344033 48.30358189 13.40072485 51.70703125 7.8515625 C52.22370361 7.00674316 52.74037598 6.16192383 53.27270508 5.29150391 C57.13265129 0.17073286 61.93131855 -2.39563594 68 -4 C75.29507843 -4.78161555 81.15071961 -2.72884385 86.8125 1.8125 C90.77418348 5.17193231 92.71404819 9.14907159 93.50390625 14.26171875 C93.65928561 23.3462321 91.79683814 28.44712563 87 36 C85.36305746 38.89870784 83.77952392 41.82643133 82.1875 44.75 C77.68895462 52.97141328 72.84616258 60.98068382 68 69 C68.60419769 69.00364563 69.20839539 69.00729126 69.8309021 69.01104736 C76.15864584 69.05308132 82.48567831 69.12257156 88.81298828 69.20751953 C91.1696865 69.23562546 93.52647718 69.25689123 95.88330078 69.27099609 C99.28465757 69.29256918 102.68491487 69.33929471 106.0859375 69.390625 C107.12801361 69.39185364 108.17008972 69.39308228 109.2437439 69.39434814 C116.71268746 69.5415839 124.19169874 70.57548567 129.94564819 75.74957275 C135.34326216 81.61103838 136.46660904 87.15188999 136.3125 94.9921875 C135.69168548 100.96752727 133.39241519 104.57593901 129.25 108.8125 C121.73187715 113.87277499 115.11995578 114.45805216 106.28125 114.51171875 C105.18276733 114.52966995 104.08428467 114.54762115 102.95251465 114.56611633 C99.46838132 114.61999197 95.98438321 114.6540426 92.5 114.6875 C90.12758545 114.72069308 87.75518868 114.75518456 85.3828125 114.79101562 C79.58866298 114.87570531 73.79449546 114.94415094 68 115 C69.49007462 117.55741243 70.98053107 120.11460027 72.47167969 122.67138672 C73.74754495 124.86078199 75.02161497 127.05122436 76.29394531 129.24267578 C79.17723516 134.20138067 82.06921511 139.14841003 85.0859375 144.02734375 C95.1868805 160.42569978 95.1868805 160.42569978 93.375 170.75 C91.4908805 177.52329035 87.71048723 181.96906784 82 186 C74.17839646 188.98643044 68.19923331 188.35628443 60.52734375 185.55859375 C54.21970923 181.66872331 50.7408906 175.20983602 47.375 168.8125 C43.0799377 160.84436093 38.50299694 153.08334952 33.75927734 145.37426758 C33.2689502 144.57013428 32.77862305 143.76600098 32.2734375 142.9375 C31.83435059 142.22464844 31.39526367 141.51179687 30.94287109 140.77734375 C30 139 30 139 30 137 C29.34 137 28.68 137 28 137 C27.74114014 137.69657715 27.48228027 138.3931543 27.21557617 139.11083984 C25.87202302 142.30417344 24.26961329 145.2183251 22.55078125 148.2265625 C22.21507614 148.81488861 21.87937103 149.40321472 21.53349304 150.0093689 C20.82313322 151.2524241 20.11117198 152.49456537 19.39770508 153.73583984 C18.32907596 155.59614403 17.26669406 157.45990555 16.20507812 159.32421875 C12.97636539 164.97655967 9.69641811 170.59927515 6.29296875 176.1484375 C5.77629639 176.99325684 5.25962402 177.83807617 4.72729492 178.70849609 C0.8598073 183.8392719 -3.92962553 186.37734221 -10 188 C-16.25503792 188.81083825 -21.58085104 187.06222091 -27 184 C-31.29484073 180.19902186 -34.48977206 175.84714978 -35.51171875 170.14453125 C-36.11264856 158.75357286 -31.73230012 151.49563403 -26 142 C-25.12586744 140.49916161 -24.2547709 138.99655084 -23.38671875 137.4921875 C-19.93626484 131.53824765 -16.38695215 125.64455504 -12.84643555 119.74389648 C-12.31173141 118.85274643 -11.77702728 117.96159637 -11.22612 117.04344177 C-10.8215004 116.36910599 -10.4168808 115.6947702 -10 115 C-10.60419769 114.99635437 -11.20839539 114.99270874 -11.8309021 114.98895264 C-18.15864584 114.94691868 -24.48567831 114.87742844 -30.81298828 114.79248047 C-33.1696865 114.76437454 -35.52647718 114.74310877 -37.88330078 114.72900391 C-41.28465757 114.70743082 -44.68491487 114.66070529 -48.0859375 114.609375 C-49.12801361 114.60814636 -50.17008972 114.60691772 -51.2437439 114.60565186 C-58.71268746 114.4584161 -66.19169874 113.42451433 -71.94564819 108.25042725 C-77.34326216 102.38896162 -78.46660904 96.84811001 -78.3125 89.0078125 C-77.69168548 83.03247273 -75.39241519 79.42406099 -71.25 75.1875 C-63.73187715 70.12722501 -57.11995578 69.54194784 -48.28125 69.48828125 C-47.18276733 69.47033005 -46.08428467 69.45237885 -44.95251465 69.43388367 C-41.46838132 69.38000803 -37.98438321 69.3459574 -34.5 69.3125 C-32.12758545 69.27930692 -29.75518868 69.24481544 -27.3828125 69.20898438 C-21.58866298 69.12429469 -15.79449546 69.05584906 -10 69 C-10.5576001 68.05084717 -10.5576001 68.05084717 -11.12646484 67.08251953 C-36.27781914 24.2283322 -36.27781914 24.2283322 -35 11 C-32.96007304 5.31106577 -28.91609648 1.34294561 -24 -2 C-15.59266914 -5.21007178 -7.69155238 -4.7433221 0 0 Z " fill="#0C99D3" transform="translate(227,164)"/>
</svg>
