<svg width="24" height="24" viewBox="0 0 24 24" fill="none" xmlns="http://www.w3.org/2000/svg">
<path d="M7.80566 5.5H7.80664C8.49755 5.49969 9.17883 5.66594 9.79199 5.98438C10.4051 6.30287 10.932 6.76468 11.3291 7.33008C11.4226 7.46325 11.5756 7.54184 11.7383 7.54199C11.9011 7.54208 12.0538 7.4632 12.1475 7.33008C12.9274 6.22215 14.2158 5.5 15.6719 5.5C18.0502 5.50013 19.9784 7.42827 19.9785 9.80664C19.9785 12.0179 18.6636 14.1919 16.9004 15.9727C15.2051 17.6847 13.1733 18.9508 11.7383 19.4688C10.3033 18.9506 8.27211 17.6844 6.57715 15.9727C4.81389 14.1919 3.49902 12.0179 3.49902 9.80664C3.49914 7.42826 5.42728 5.50011 7.80566 5.5Z" stroke="#2C2C2C" stroke-linecap="round" stroke-linejoin="round"/>
</svg>
