<svg width="153" height="19" viewBox="0 0 153 19" fill="none" xmlns="http://www.w3.org/2000/svg">
<path fill-rule="evenodd" clip-rule="evenodd" d="M14.2778 13.634L0 13.577V19L14.3015 18.9997L14.2778 13.634L17.4008 18.993L25 18.9994L21.0506 11.9812C20.6005 11.1815 20.0268 10.3077 19.679 9.54418C20.0925 8.42816 24.6484 0.976581 24.988 0.00480804L17.332 0.00816444C17.0476 0.833117 14.867 4.42694 14.2989 5.39776L14.3141 0L0 0.00816444V5.43015L14.2989 5.39776L11.993 9.30382L11.9882 7.10453L0 7.06529V11.9477L11.9888 11.9472L11.9994 9.61162C12.4103 10.2444 14.1085 13.0632 14.2778 13.634Z" fill="#2DAEFF"/>
<path fill-rule="evenodd" clip-rule="evenodd" d="M48.7818 19L35 18.9682V0.0749565L49.4759 0.138593V5.09594L41.781 5.0323V6.73104L48.3188 6.76295V11.7205L41.781 11.6886V13.9609L49.4126 13.9927V19H48.7818ZM69.1577 18.9467H62.3757L58.3095 11.4V18.9467H50.9611V0.0535107H58.3095V7.21802L62.2187 0.181043L70.7458 0.0535107L64.0295 9.10094L69.8806 17.2099L76.97 0.178654L76.9503 0.177811L76.9979 0.0639739L84.325 7.78903e-05L91.6468 18.9683H84.0952L83.0929 16.2022H77.4204L76.39 18.9683H69.2066L69.1491 18.9674L69.1577 18.9467ZM81.6153 10.5952L80.9426 8.35338C80.8421 8.03578 80.7286 7.66194 80.602 7.23579L80.2437 6.01358C80.1155 6.48584 79.9467 7.07858 79.7377 7.79144C79.5287 8.50455 79.2493 9.43861 78.8989 10.5952H81.6153ZM108.976 18.9682H102.783V5.10709H98.4048V18.9682H91.5955V0.0749565H109.606V18.9682H108.976ZM125.14 18.5582L124.198 16.2018H118.525L117.559 18.9682H110.301L117.215 0H125.493L132.656 18.9682H125.264L125.14 18.5582ZM122.784 10.5952L122.111 8.35338C122.01 8.03578 121.897 7.66194 121.77 7.23579L121.412 6.01358C121.284 6.48584 121.115 7.07858 120.906 7.79144C120.697 8.50455 120.417 9.43861 120.067 10.5952H122.784ZM151.863 18.9682H144.242L140.176 11.4214V18.9682H132.827V0.0749565H140.176V7.23945L144.085 0.202567L152.612 0.0749565L145.896 9.12247L153 18.9682H151.863Z" fill="#2C2C2C"/>
</svg>
