<svg width="31" height="31" viewBox="0 0 31 31" fill="none" xmlns="http://www.w3.org/2000/svg">
<path fill-rule="evenodd" clip-rule="evenodd" d="M11.7675 1.86087C11.5229 2.08043 11.2667 2.28686 11.0002 2.4793C10.5383 2.7893 10.0191 3.0032 9.47345 3.11169C9.23629 3.15819 8.98829 3.17834 8.49382 3.21709C7.25224 3.31629 6.63068 3.36589 6.11296 3.54879C5.52084 3.75749 4.98303 4.09626 4.53909 4.54018C4.09514 4.98411 3.75636 5.52189 3.54765 6.114C3.36475 6.63169 3.31514 7.25323 3.21594 8.49476C3.19814 8.82292 3.16296 9.1499 3.11054 9.47434C3.00204 10.0199 2.78813 10.5392 2.47812 11.0011C2.34327 11.2026 2.18207 11.3917 1.85966 11.7683C1.05209 12.7169 0.647529 13.1912 0.410373 13.6872C-0.136791 14.8342 -0.136791 16.1671 0.410373 17.3141C0.647529 17.8101 1.05209 18.2844 1.85966 19.233C2.18207 19.6096 2.34327 19.7987 2.47812 20.0002C2.78813 20.4621 3.00204 20.9813 3.11054 21.5269C3.15704 21.7641 3.17719 22.0121 3.21594 22.5065C3.31514 23.7481 3.36475 24.3696 3.54765 24.8873C3.75636 25.4794 4.09514 26.0172 4.53909 26.4611C4.98303 26.905 5.52084 27.2438 6.11296 27.4525C6.63068 27.6354 7.25224 27.685 8.49382 27.7842C8.98829 27.8229 9.23629 27.8431 9.47345 27.8896C10.0191 27.9981 10.5383 28.2135 11.0002 28.522C11.2017 28.6568 11.3908 28.818 11.7675 29.1404C12.7161 29.948 13.1904 30.3525 13.6865 30.5896C14.8335 31.1368 16.1665 31.1368 17.3135 30.5896C17.8096 30.3525 18.2839 29.948 19.2325 29.1404C19.6092 28.818 19.7983 28.6568 19.9998 28.522C20.4617 28.212 20.9809 27.9981 21.5266 27.8896C21.7637 27.8431 22.0117 27.8229 22.5062 27.7842C23.7478 27.685 24.3693 27.6354 24.887 27.4525C25.4792 27.2438 26.017 26.905 26.4609 26.4611C26.9049 26.0172 27.2436 25.4794 27.4523 24.8873C27.6353 24.3696 27.6849 23.7481 27.7841 22.5065C27.8228 22.0121 27.843 21.7641 27.8895 21.5269C27.998 20.9813 28.2134 20.4621 28.5219 20.0002C28.6567 19.7987 28.8179 19.6096 29.1403 19.233C29.9479 18.2844 30.3525 17.8101 30.5896 17.3141C31.1368 16.1671 31.1368 14.8342 30.5896 13.6872C30.3525 13.1912 29.9479 12.7169 29.1403 11.7683C28.9208 11.5237 28.7143 11.2676 28.5219 11.0011C28.2117 10.5392 27.9967 10.0202 27.8895 9.47434C27.837 9.1499 27.8019 8.82292 27.7841 8.49476C27.6849 7.25323 27.6353 6.63169 27.4523 6.114C27.2436 5.52189 26.9049 4.98411 26.4609 4.54018C26.017 4.09626 25.4792 3.75749 24.887 3.54879C24.3693 3.36589 23.7478 3.31629 22.5062 3.21709C22.178 3.19929 21.851 3.16411 21.5266 3.11169C20.9806 3.00447 20.4616 2.78948 19.9998 2.4793C19.7333 2.28686 19.4771 2.08043 19.2325 1.86087C18.2839 1.05333 17.8096 0.648785 17.3135 0.411639C16.7474 0.14066 16.1277 0 15.5 0C14.8723 0 14.2526 0.14066 13.6865 0.411639C13.1904 0.648785 12.7161 1.05333 11.7675 1.86087ZM21.4382 9.56424C21.6743 9.80078 21.8068 10.1213 21.8068 10.4555C21.8068 10.7896 21.6743 11.1102 21.4382 11.3467L11.3459 21.4401C11.2309 21.566 11.0916 21.6672 10.9364 21.7378C10.7812 21.8083 10.6133 21.8466 10.4429 21.8505C10.2724 21.8543 10.103 21.8236 9.94474 21.7601C9.78651 21.6967 9.64278 21.6018 9.52223 21.4813C9.40168 21.3607 9.30682 21.217 9.24335 21.0588C9.17989 20.9006 9.14916 20.7311 9.153 20.5607C9.15684 20.3902 9.19519 20.2224 9.26571 20.0672C9.33624 19.912 9.43749 19.7727 9.56335 19.6577L19.6541 9.56579C19.8906 9.32973 20.2112 9.19716 20.5454 9.19716C20.8796 9.19716 21.2001 9.32973 21.4366 9.56579M21.3855 19.7073C21.3855 20.1533 21.2083 20.581 20.8929 20.8964C20.5775 21.2118 20.1497 21.389 19.7037 21.389C19.2577 21.389 18.8299 21.2118 18.5145 20.8964C18.1991 20.581 18.0219 20.1533 18.0219 19.7073C18.0219 19.2613 18.1991 18.8335 18.5145 18.5181C18.8299 18.2027 19.2577 18.0255 19.7037 18.0255C20.1497 18.0255 20.5775 18.2027 20.8929 18.5181C21.2083 18.8335 21.3855 19.2613 21.3855 19.7073ZM11.2947 12.9804C11.7408 12.9804 12.1686 12.8032 12.484 12.4878C12.7993 12.1724 12.9765 11.7447 12.9765 11.2987C12.9765 10.8526 12.7993 10.4249 12.484 10.1095C12.1686 9.79412 11.7408 9.61694 11.2947 9.61694C10.8487 9.61694 10.4209 9.79412 10.1055 10.1095C9.79014 10.4249 9.61295 10.8526 9.61295 11.2987C9.61295 11.7447 9.79014 12.1724 10.1055 12.4878C10.4209 12.8032 10.8487 12.9804 11.2947 12.9804Z" fill="#00B0FF"/>
</svg>
