<svg width="20" height="20" viewBox="0 0 20 20" fill="none" xmlns="http://www.w3.org/2000/svg">
<path d="M3.34375 8.57031C2.56483 6.99566 2.30478 5.5925 2.65039 4.55566C2.78056 4.16541 3.11729 3.60087 3.54004 3.14941C3.76638 2.90777 4.03585 2.84296 4.34961 2.90723C4.68635 2.97633 5.06466 3.19845 5.3916 3.52539L6.67773 4.81152C7.18725 5.3212 7.32264 5.93474 7.07129 6.31738C6.50409 7.18088 6.022 8.36019 6.76953 9.45801C7.41654 10.408 8.39512 11.4824 9.38574 12.3535C9.88215 12.79 10.3902 13.1834 10.8701 13.4873C11.2825 13.7484 11.7022 13.9615 12.0918 14.0664L12.2539 14.1045C12.3701 14.1274 12.4822 14.1065 12.5742 14.0605C12.6105 14.0424 12.6611 14.0123 12.71 13.9619H12.709C12.9551 13.7153 13.1945 13.4368 13.5166 13.1504C13.7712 12.924 14.066 12.8709 14.3994 12.9502C14.7506 13.0338 15.1319 13.2658 15.4609 13.5947L16.4746 14.6084C16.8016 14.9353 17.0237 15.3136 17.0928 15.6504C17.157 15.9642 17.0922 16.2336 16.8506 16.46C16.3991 16.8827 15.8346 17.2195 15.4443 17.3496C14.4075 17.6952 13.0043 17.4352 11.4297 16.6562C9.87333 15.8863 8.23822 14.6523 6.79297 13.207C5.34772 11.7618 4.11366 10.1267 3.34375 8.57031Z" fill="white" stroke="#2C2C2C"/>
</svg>
