<svg width="20" height="20" viewBox="0 0 20 20" fill="none" xmlns="http://www.w3.org/2000/svg">
<rect x="0.5" y="0.5" width="19" height="19" rx="9.5" stroke="#D4D4D4"/>
<path d="M8.954 12.249C8.954 11.885 8.97033 11.5653 9.003 11.29C9.04033 11.01 9.13367 10.73 9.283 10.45C9.423 10.184 9.59567 9.96467 9.801 9.792C10.0063 9.61467 10.221 9.449 10.445 9.295C10.669 9.13633 10.8813 8.94967 11.082 8.735C11.264 8.525 11.3853 8.31267 11.446 8.098C11.5067 7.88333 11.537 7.657 11.537 7.419C11.537 7.181 11.5067 6.96867 11.446 6.782C11.39 6.59533 11.3013 6.43433 11.18 6.299C10.9933 6.07033 10.7647 5.914 10.494 5.83C10.2233 5.746 9.941 5.704 9.647 5.704C9.35767 5.704 9.087 5.746 8.835 5.83C8.58767 5.90933 8.38233 6.033 8.219 6.201C8.06033 6.35033 7.94367 6.53 7.869 6.74C7.799 6.95 7.764 7.17167 7.764 7.405H6.7C6.71867 7.03633 6.798 6.677 6.938 6.327C7.08267 5.97233 7.29267 5.676 7.568 5.438C7.84333 5.186 8.163 5.004 8.527 4.892C8.89567 4.77533 9.26667 4.717 9.64 4.717C10.0973 4.717 10.5313 4.787 10.942 4.927C11.3527 5.06233 11.698 5.291 11.978 5.613C12.202 5.851 12.3653 6.124 12.468 6.432C12.5753 6.73533 12.629 7.05967 12.629 7.405C12.629 7.79233 12.5567 8.15633 12.412 8.497C12.2673 8.83767 12.0643 9.141 11.803 9.407C11.6443 9.57967 11.4647 9.74067 11.264 9.89C11.0633 10.0347 10.8697 10.1863 10.683 10.345C10.501 10.499 10.361 10.667 10.263 10.849C10.1417 11.073 10.074 11.2853 10.06 11.486C10.0507 11.6867 10.046 11.941 10.046 12.249H8.954ZM8.961 15V13.628H10.046V15H8.961Z" fill="#2C2C2C"/>
</svg>
