<svg width="18" height="21" viewBox="0 0 18 21" fill="none" xmlns="http://www.w3.org/2000/svg">
<path d="M17.4255 3.29412H13.4043V2.26471C13.4043 1.66407 13.1823 1.08803 12.7873 0.663317C12.3923 0.238602 11.8565 0 11.2979 0H6.70213C6.14348 0 5.60771 0.238602 5.21269 0.663317C4.81767 1.08803 4.59575 1.66407 4.59575 2.26471V3.29412H0.574468C0.42211 3.29412 0.275991 3.35919 0.168258 3.47502C0.0605241 3.59085 0 3.74795 0 3.91176C0 4.07557 0.0605241 4.23268 0.168258 4.34851C0.275991 4.46434 0.42211 4.52941 0.574468 4.52941H1.53191V19.5588C1.53191 19.941 1.67314 20.3076 1.92452 20.5779C2.1759 20.8482 2.51684 21 2.87234 21H15.1277C15.4832 21 15.8241 20.8482 16.0755 20.5779C16.3269 20.3076 16.4681 19.941 16.4681 19.5588V4.52941H17.4255C17.5779 4.52941 17.724 4.46434 17.8317 4.34851C17.9395 4.23268 18 4.07557 18 3.91176C18 3.74795 17.9395 3.59085 17.8317 3.47502C17.724 3.35919 17.5779 3.29412 17.4255 3.29412ZM5.74468 2.26471C5.74468 1.99169 5.84555 1.72985 6.02511 1.5368C6.20467 1.34375 6.4482 1.23529 6.70213 1.23529H11.2979C11.5518 1.23529 11.7953 1.34375 11.9749 1.5368C12.1544 1.72985 12.2553 1.99169 12.2553 2.26471V3.29412H5.74468V2.26471ZM15.3191 19.5588C15.3191 19.6134 15.299 19.6658 15.2631 19.7044C15.2272 19.743 15.1784 19.7647 15.1277 19.7647H2.87234C2.82155 19.7647 2.77285 19.743 2.73694 19.7044C2.70103 19.6658 2.68085 19.6134 2.68085 19.5588V4.52941H15.3191V19.5588ZM7.2766 8.85294V15.4412C7.2766 15.605 7.21607 15.7621 7.10834 15.8779C7.0006 15.9938 6.85449 16.0588 6.70213 16.0588C6.54977 16.0588 6.40365 15.9938 6.29592 15.8779C6.18818 15.7621 6.12766 15.605 6.12766 15.4412V8.85294C6.12766 8.68913 6.18818 8.53203 6.29592 8.4162C6.40365 8.30037 6.54977 8.23529 6.70213 8.23529C6.85449 8.23529 7.0006 8.30037 7.10834 8.4162C7.21607 8.53203 7.2766 8.68913 7.2766 8.85294ZM11.8723 8.85294V15.4412C11.8723 15.605 11.8118 15.7621 11.7041 15.8779C11.5963 15.9938 11.4502 16.0588 11.2979 16.0588C11.1455 16.0588 10.9994 15.9938 10.8917 15.8779C10.7839 15.7621 10.7234 15.605 10.7234 15.4412V8.85294C10.7234 8.68913 10.7839 8.53203 10.8917 8.4162C10.9994 8.30037 11.1455 8.23529 11.2979 8.23529C11.4502 8.23529 11.5963 8.30037 11.7041 8.4162C11.8118 8.53203 11.8723 8.68913 11.8723 8.85294Z" fill="#9A9A9A"/>
</svg>
