<svg width="20" height="20" viewBox="0 0 20 20" fill="none" xmlns="http://www.w3.org/2000/svg">
<path d="M12.2931 0.173039L11.723 0.0933478C10.0094 -0.153039 8.26085 0.0907133 6.6811 0.796187C5.10136 1.50166 3.75552 2.63979 2.8005 4.07789C1.78437 5.45254 1.17863 7.08496 1.05299 8.78731C0.927353 10.4897 1.28692 12.1927 2.0903 13.7006C2.17252 13.8517 2.22371 14.0176 2.24088 14.1886C2.25806 14.3596 2.24087 14.5324 2.19033 14.6967C1.78022 16.1012 1.40011 17.5158 1 19L1.50014 18.8506C2.85051 18.492 4.20088 18.1334 5.55126 17.8046C5.83628 17.7456 6.13253 17.7734 6.40149 17.8843C7.61302 18.4732 8.93701 18.7971 10.2846 18.8344C11.6322 18.8718 12.9722 18.6216 14.2148 18.1007C15.4573 17.5798 16.5735 16.8003 17.4887 15.8145C18.4038 14.8286 19.0965 13.6592 19.5205 12.3848C19.9444 11.1104 20.0897 9.76038 19.9466 8.42543C19.8035 7.09048 19.3753 5.80144 18.6908 4.64485C18.0063 3.48825 17.0813 2.49084 15.9778 1.71956C14.8744 0.948286 13.618 0.420981 12.2931 0.173039ZM14.8138 13.2423C14.4503 13.5665 14.007 13.7889 13.529 13.8869C13.0511 13.9848 12.5556 13.9549 12.0931 13.8002C9.99743 13.2116 8.17923 11.9022 6.96165 10.1045C6.49669 9.46857 6.123 8.77121 5.85134 8.03255C5.70415 7.60398 5.67761 7.14347 5.77459 6.70095C5.87157 6.25843 6.08838 5.8508 6.40149 5.52229C6.55392 5.32855 6.7614 5.18503 6.99691 5.1104C7.23242 5.03578 7.48504 5.03351 7.72186 5.10391C7.92191 5.15372 8.06195 5.4426 8.242 5.66174C8.38871 6.07348 8.55875 6.47526 8.75214 6.86707C8.8986 7.0668 8.95977 7.31613 8.92229 7.56062C8.88481 7.8051 8.75172 8.0249 8.55208 8.17201C8.10196 8.57046 8.17198 8.89919 8.49207 9.34745C9.19932 10.363 10.1759 11.1631 11.3128 11.6585C11.6329 11.7979 11.873 11.8278 12.0831 11.4991C12.1731 11.3696 12.2931 11.26 12.3931 11.1405C12.9733 10.4133 12.7933 10.4233 13.7135 10.8217C14.0069 10.9446 14.2903 11.0874 14.5637 11.2501C14.8338 11.4094 15.2439 11.5788 15.3039 11.8179C15.3617 12.0772 15.3465 12.3474 15.26 12.5987C15.1735 12.8501 15.0192 13.0727 14.8138 13.2423Z" fill="#11C02F"/>
</svg>
